<svg viewBox="0 0 1200 800" xmlns="http://www.w3.org/2000/svg">
    <style>
        /* Animácie a CSS štýly integrované priamo v SVG */
        .path-line {
            fill: none;
            stroke: #ccd6d3;
            stroke-width: 8;
            stroke-linecap: round;
            stroke-dasharray: 3000;
            stroke-dashoffset: 3000;
            animation: drawPath 3s ease-in-out forwards;
        }

        .path-ba { animation-delay: 1.5s; }
        .path-sc { animation-delay: 1.0s; }
        .path-tt { animation-delay: 1.2s; }

        @keyframes drawPath {
            to { stroke-dashoffset: 0; }
        }

        .node, .label-group, .dest-node { opacity: 0; }

        .node-ba { animation: popIn 0.5s cubic-bezier(0.175, 0.885, 0.32, 1.275) 0.2s forwards; }
        .node-sc { animation: popIn 0.5s cubic-bezier(0.175, 0.885, 0.32, 1.275) 0.4s forwards; }
        .node-tt { animation: popIn 0.5s cubic-bezier(0.175, 0.885, 0.32, 1.275) 0.6s forwards; }
        
        .dest-node { animation: popIn 0.6s cubic-bezier(0.175, 0.885, 0.32, 1.275) 4.0s forwards; }

        .label-ba { animation: fadeIn 0.5s ease-out 4.5s forwards; }
        .label-sc { animation: fadeIn 0.5s ease-out 4.5s forwards; }
        .label-tt { animation: fadeIn 0.5s ease-out 4.5s forwards; }

        .moving-dot {
            opacity: 0;
            animation: fadeIn 0.5s ease-out 5s forwards;
        }

        @keyframes popIn {
            0% { transform: scale(0); opacity: 0; }
            100% { transform: scale(1); opacity: 1; }
        }

        @keyframes fadeIn {
            0% { opacity: 0; transform: translateY(10px); }
            100% { opacity: 1; transform: translateY(0); }
        }

        /* Fonty pre texty v SVG */
        text {
            user-select: none;
            font-family: 'Segoe UI', Tahoma, Geneva, Verdana, sans-serif;
        }
        .text-node {
            font-weight: bold;
            font-size: 18px;
            fill: white;
            text-anchor: middle;
            dominant-baseline: central;
        }
        .text-label {
            font-weight: 700;
            font-size: 15px;
            fill: #01352f;
            text-anchor: middle;
            dominant-baseline: central;
        }
        
        /* Štýl pre názvy okolitých miest v pozadí */
        .bg-city {
            font-size: 10px;
            fill: #a0aab2;
            text-anchor: middle;
            letter-spacing: 0.5px;
            font-weight: 500;
        }
        .bg-city-dot {
            fill: #c0c8cf;
        }
    </style>

    <!-- Pozadie mapy -->
    <rect width="1200" height="800" fill="#f7f9f9" rx="16" />

    <defs>
        <!-- Definovanie tieňa pre objekty -->
        <filter id="drop-shadow" x="-20%" y="-20%" width="140%" height="140%">
            <feDropShadow dx="0" dy="4" stdDeviation="4" flood-color="#000" flood-opacity="0.15" />
        </filter>
        
        <!-- Presne upravené krivky podľa predlohy -->
        <path id="route-tt" d="M 760 60 C 950 100, 900 450, 730 550" />
        <path id="route-sc" d="M 510 390 C 650 390, 720 450, 730 550" />
        <path id="route-ba" d="M 120 540 C 300 540, 200 720, 400 720 S 650 550, 730 550" />
    </defs>

    <!-- Názvy okolitých miest v pozadí -->
    <g class="bg-cities">
        <!-- Bratislava a okolie -->
        <g transform="translate(40, 320)"><circle class="bg-city-dot" r="2.5"/><text class="bg-city" y="-8">Stupava</text></g>
        <g transform="translate(80, 350)"><circle class="bg-city-dot" r="2.5"/><text class="bg-city" y="-8">Marianka</text></g>
        <g transform="translate(50, 240)"><circle class="bg-city-dot" r="2.5"/><text class="bg-city" y="-8">Lozorno</text></g>
        <g transform="translate(90, 420)"><circle class="bg-city-dot" r="2.5"/><text class="bg-city" y="-8">Lamač</text></g>
        <g transform="translate(60, 440)"><circle class="bg-city-dot" r="2.5"/><text class="bg-city" y="-8">Dúbravka</text></g>
        <g transform="translate(160, 410)"><circle class="bg-city-dot" r="2.5"/><text class="bg-city" y="-8">Rača</text></g>
        <g transform="translate(210, 440)"><circle class="bg-city-dot" r="2.5"/><text class="bg-city" y="-8">Vajnory</text></g>
        <g transform="translate(130, 600)"><circle class="bg-city-dot" r="2.5"/><text class="bg-city" y="-8">Petržalka</text></g>
        <g transform="translate(150, 710)"><circle class="bg-city-dot" r="2.5"/><text class="bg-city" y="-8">Jarovce</text></g>
        <g transform="translate(180, 760)"><circle class="bg-city-dot" r="2.5"/><text class="bg-city" y="-8">Rusovce</text></g>

        <!-- Pezinok, Modra a okolie -->
        <g transform="translate(230, 380)"><circle class="bg-city-dot" r="2.5"/><text class="bg-city" y="-8">Svätý Jur</text></g>
        <g transform="translate(260, 300)"><circle class="bg-city-dot" r="2.5"/><text class="bg-city" y="-8">Pezinok</text></g>
        <g transform="translate(320, 220)"><circle class="bg-city-dot" r="2.5"/><text class="bg-city" y="-8">Modra</text></g>
        <g transform="translate(380, 300)"><circle class="bg-city-dot" r="2.5"/><text class="bg-city" y="-8">Šenkvice</text></g>
        <g transform="translate(430, 240)"><circle class="bg-city-dot" r="2.5"/><text class="bg-city" y="-8">Vištuk</text></g>
        <g transform="translate(420, 180)"><circle class="bg-city-dot" r="2.5"/><text class="bg-city" y="-8">Budmerice</text></g>
        <g transform="translate(490, 250)"><circle class="bg-city-dot" r="2.5"/><text class="bg-city" y="-8">Báhoň</text></g>
        <g transform="translate(520, 280)"><circle class="bg-city-dot" r="2.5"/><text class="bg-city" y="-8">Kaplna</text></g>
        <g transform="translate(480, 330)"><circle class="bg-city-dot" r="2.5"/><text class="bg-city" y="-8">Blatné</text></g>
        <g transform="translate(530, 310)"><circle class="bg-city-dot" r="2.5"/><text class="bg-city" y="-8">Čataj</text></g>
        <g transform="translate(550, 330)"><circle class="bg-city-dot" r="2.5"/><text class="bg-city" y="-8">Igram</text></g>

        <!-- Medzi BA a SC -->
        <g transform="translate(280, 420)"><circle class="bg-city-dot" r="2.5"/><text class="bg-city" y="-8">Chorvátsky Grob</text></g>
        <g transform="translate(260, 370)"><circle class="bg-city-dot" r="2.5"/><text class="bg-city" y="-8">Slovenský Grob</text></g>
        <g transform="translate(310, 450)"><circle class="bg-city-dot" r="2.5"/><text class="bg-city" y="-8">Bernolákovo</text></g>
        <g transform="translate(250, 480)"><circle class="bg-city-dot" r="2.5"/><text class="bg-city" y="-8">Ivanka pri Dunaji</text></g>
        <g transform="translate(290, 500)"><circle class="bg-city-dot" r="2.5"/><text class="bg-city" y="-8">Zálesie</text></g>
        <g transform="translate(330, 520)"><circle class="bg-city-dot" r="2.5"/><text class="bg-city" y="-8">Malinovo</text></g>
        <g transform="translate(380, 550)"><circle class="bg-city-dot" r="2.5"/><text class="bg-city" y="-8">Tomášov</text></g>
        <g transform="translate(400, 490)"><circle class="bg-city-dot" r="2.5"/><text class="bg-city" y="-8">Nová Dedinka</text></g>
        <g transform="translate(460, 430)"><circle class="bg-city-dot" r="2.5"/><text class="bg-city" y="-8">Veľký Biel</text></g>
        <g transform="translate(320, 340)"><circle class="bg-city-dot" r="2.5"/><text class="bg-city" y="-8">Viničné</text></g>

        <!-- Trnava a okolie -->
        <g transform="translate(680, 50)"><circle class="bg-city-dot" r="2.5"/><text class="bg-city" y="-8">Biely Kostol</text></g>
        <g transform="translate(650, 30)"><circle class="bg-city-dot" r="2.5"/><text class="bg-city" y="-8">Ružindol</text></g>
        <g transform="translate(700, 110)"><circle class="bg-city-dot" r="2.5"/><text class="bg-city" y="-8">Hrnčiarovce n. P.</text></g>
        <g transform="translate(750, 140)"><circle class="bg-city-dot" r="2.5"/><text class="bg-city" y="-8">Zeleneč</text></g>
        <g transform="translate(740, 220)"><circle class="bg-city-dot" r="2.5"/><text class="bg-city" y="-8">Majcichov</text></g>
        <g transform="translate(680, 240)"><circle class="bg-city-dot" r="2.5"/><text class="bg-city" y="-8">Voderady</text></g>
        <g transform="translate(780, 190)"><circle class="bg-city-dot" r="2.5"/><text class="bg-city" y="-8">Vlčkovce</text></g>
        <g transform="translate(840, 90)"><circle class="bg-city-dot" r="2.5"/><text class="bg-city" y="-8">Zavar</text></g>
        <g transform="translate(890, 60)"><circle class="bg-city-dot" r="2.5"/><text class="bg-city" y="-8">Brestovany</text></g>
        <g transform="translate(630, 180)"><circle class="bg-city-dot" r="2.5"/><text class="bg-city" y="-8">Cífer</text></g>

        <!-- Sereď, Galanta a okolie -->
        <g transform="translate(880, 280)"><circle class="bg-city-dot" r="2.5"/><text class="bg-city" y="-8">Sereď</text></g>
        <g transform="translate(890, 320)"><circle class="bg-city-dot" r="2.5"/><text class="bg-city" y="-8">Dolná Streda</text></g>
        <g transform="translate(930, 360)"><circle class="bg-city-dot" r="2.5"/><text class="bg-city" y="-8">Váhovce</text></g>
        <g transform="translate(970, 330)"><circle class="bg-city-dot" r="2.5"/><text class="bg-city" y="-8">Šoporňa</text></g>
        <g transform="translate(970, 280)"><circle class="bg-city-dot" r="2.5"/><text class="bg-city" y="-8">Pata</text></g>
        <g transform="translate(800, 360)"><circle class="bg-city-dot" r="2.5"/><text class="bg-city" y="-8">Veľká Mača</text></g>
        <g transform="translate(720, 330)"><circle class="bg-city-dot" r="2.5"/><text class="bg-city" y="-8">Abrahám</text></g>
        <g transform="translate(660, 360)"><circle class="bg-city-dot" r="2.5"/><text class="bg-city" y="-8">Pusté Úľany</text></g>
        <g transform="translate(760, 420)"><circle class="bg-city-dot" r="2.5"/><text class="bg-city" y="-8">Sládkovičovo</text></g>
        <g transform="translate(820, 480)"><circle class="bg-city-dot" r="2.5"/><text class="bg-city" y="-8">Košúty</text></g>
        <g transform="translate(890, 470)"><circle class="bg-city-dot" r="2.5"/><text class="bg-city" y="-8">Galanta</text></g>
        <g transform="translate(950, 460)"><circle class="bg-city-dot" r="2.5"/><text class="bg-city" y="-8">Kajal</text></g>
        <g transform="translate(960, 490)"><circle class="bg-city-dot" r="2.5"/><text class="bg-city" y="-8">Topoľnica</text></g>
        <g transform="translate(880, 510)"><circle class="bg-city-dot" r="2.5"/><text class="bg-city" y="-8">Matúškovo</text></g>
        <g transform="translate(810, 530)"><circle class="bg-city-dot" r="2.5"/><text class="bg-city" y="-8">Čierny Brod</text></g>
        <g transform="translate(840, 560)"><circle class="bg-city-dot" r="2.5"/><text class="bg-city" y="-8">Mostová</text></g>
        <g transform="translate(920, 570)"><circle class="bg-city-dot" r="2.5"/><text class="bg-city" y="-8">Horné Saliby</text></g>
        <g transform="translate(960, 620)"><circle class="bg-city-dot" r="2.5"/><text class="bg-city" y="-8">Dolné Saliby</text></g>
        <g transform="translate(690, 520)"><circle class="bg-city-dot" r="2.5"/><text class="bg-city" y="-8">Veľké Úľany</text></g>
        <g transform="translate(610, 560)"><circle class="bg-city-dot" r="2.5"/><text class="bg-city" y="-8">Jelka</text></g>
        
        <!-- SC a okolie smer Sedin -->
        <g transform="translate(560, 440)"><circle class="bg-city-dot" r="2.5"/><text class="bg-city" y="-8">Kráľová pri Senci</text></g>
        <g transform="translate(600, 470)"><circle class="bg-city-dot" r="2.5"/><text class="bg-city" y="-8">Hrubá Borša</text></g>
        <g transform="translate(640, 490)"><circle class="bg-city-dot" r="2.5"/><text class="bg-city" y="-8">Jánovce</text></g>

        <!-- Žitný ostrov -->
        <g transform="translate(230, 620)"><circle class="bg-city-dot" r="2.5"/><text class="bg-city" y="-8">Rovinka</text></g>
        <g transform="translate(280, 660)"><circle class="bg-city-dot" r="2.5"/><text class="bg-city" y="-8">Dunajská Lužná</text></g>
        <g transform="translate(320, 620)"><circle class="bg-city-dot" r="2.5"/><text class="bg-city" y="-8">Miloslavov</text></g>
        <g transform="translate(380, 640)"><circle class="bg-city-dot" r="2.5"/><text class="bg-city" y="-8">Štvrtok na Ostrove</text></g>
        <g transform="translate(350, 690)"><circle class="bg-city-dot" r="2.5"/><text class="bg-city" y="-8">Hviezdoslavov</text></g>
        <g transform="translate(380, 720)"><circle class="bg-city-dot" r="2.5"/><text class="bg-city" y="-8">Kvetoslavov</text></g>
        <g transform="translate(320, 770)"><circle class="bg-city-dot" r="2.5"/><text class="bg-city" y="-8">Šamorín</text></g>
        <g transform="translate(460, 610)"><circle class="bg-city-dot" r="2.5"/><text class="bg-city" y="-8">Zlaté Klasy</text></g>
        <g transform="translate(480, 640)"><circle class="bg-city-dot" r="2.5"/><text class="bg-city" y="-8">Čenkovce</text></g>
        <g transform="translate(540, 600)"><circle class="bg-city-dot" r="2.5"/><text class="bg-city" y="-8">Nový Život</text></g>
        <g transform="translate(520, 740)"><circle class="bg-city-dot" r="2.5"/><text class="bg-city" y="-8">Lehnice</text></g>
        <g transform="translate(600, 670)"><circle class="bg-city-dot" r="2.5"/><text class="bg-city" y="-8">Blahová</text></g>
        <g transform="translate(650, 660)"><circle class="bg-city-dot" r="2.5"/><text class="bg-city" y="-8">Potônske Lúky</text></g>
        <g transform="translate(740, 680)"><circle class="bg-city-dot" r="2.5"/><text class="bg-city" y="-8">Tomášikovo</text></g>
        <g transform="translate(780, 760)"><circle class="bg-city-dot" r="2.5"/><text class="bg-city" y="-8">Jahodná</text></g>

        <!-- Východ / Považie -->
        <g transform="translate(1060, 520)"><circle class="bg-city-dot" r="2.5"/><text class="bg-city" y="-8">Šaľa</text></g>
        <g transform="translate(1030, 560)"><circle class="bg-city-dot" r="2.5"/><text class="bg-city" y="-8">Diakovce</text></g>
        <g transform="translate(1050, 620)"><circle class="bg-city-dot" r="2.5"/><text class="bg-city" y="-8">Tešedíkovo</text></g>
        <g transform="translate(1120, 540)"><circle class="bg-city-dot" r="2.5"/><text class="bg-city" y="-8">Trnovec n. Váhom</text></g>
        <g transform="translate(990, 720)"><circle class="bg-city-dot" r="2.5"/><text class="bg-city" y="-8">Kráľov Brod</text></g>
        <g transform="translate(1070, 710)"><circle class="bg-city-dot" r="2.5"/><text class="bg-city" y="-8">Žihárec</text></g>
        <g transform="translate(1080, 380)"><circle class="bg-city-dot" r="2.5"/><text class="bg-city" y="-8">Horná Kráľová</text></g>
        <g transform="translate(1130, 400)"><circle class="bg-city-dot" r="2.5"/><text class="bg-city" y="-8">Močenok</text></g>
        <g transform="translate(1060, 340)"><circle class="bg-city-dot" r="2.5"/><text class="bg-city" y="-8">Hájske</text></g>
    </g>

    <!-- Animované hlavné trasy -->
    <path class="path-line path-ba" d="M 120 540 C 300 540, 200 720, 400 720 S 650 550, 730 550" />
    <path class="path-line path-sc" d="M 510 390 C 650 390, 720 450, 730 550" />
    <path class="path-line path-tt" d="M 760 60 C 950 100, 900 450, 730 550" />

    <!-- Pohyblivé indikátory pre každú trasu (Autá) -->
    <g class="moving-dot">
        <circle r="6" fill="#b89b7b" filter="url(#drop-shadow)">
            <animateMotion dur="6s" repeatCount="indefinite">
                <mpath href="#route-ba" />
            </animateMotion>
        </circle>
    </g>
    <g class="moving-dot">
        <circle r="6" fill="#b89b7b" filter="url(#drop-shadow)">
            <animateMotion dur="2.5s" repeatCount="indefinite">
                <mpath href="#route-sc" />
            </animateMotion>
        </circle>
    </g>
    <g class="moving-dot">
        <circle r="6" fill="#b89b7b" filter="url(#drop-shadow)">
            <animateMotion dur="4.5s" repeatCount="indefinite">
                <mpath href="#route-tt" />
            </animateMotion>
        </circle>
    </g>

    <!-- BODY (Mestá) a ŠTÍTKY (Časy) -->
    
    <!-- Trnava (TT) -->
    <g transform="translate(760, 60)">
        <g class="label-group label-tt">
            <rect x="15" y="-16" width="70" height="32" rx="4" fill="#b89b7b" filter="url(#drop-shadow)" />
            <text x="50" y="1" class="text-label">30min</text>
        </g>
        <g class="node node-tt">
            <circle cx="0" cy="0" r="26" fill="#01352f" filter="url(#drop-shadow)" />
            <text x="0" y="1.5" class="text-node">TT</text>
        </g>
    </g>

    <!-- Senec (SC) -->
    <g transform="translate(510, 390)">
        <g class="label-group label-sc">
            <rect x="15" y="-16" width="70" height="32" rx="4" fill="#b89b7b" filter="url(#drop-shadow)" />
            <text x="50" y="1" class="text-label">15min</text>
        </g>
        <g class="node node-sc">
            <circle cx="0" cy="0" r="26" fill="#01352f" filter="url(#drop-shadow)" />
            <text x="0" y="1.5" class="text-node">SC</text>
        </g>
    </g>

    <!-- Bratislava (BA) -->
    <g transform="translate(120, 540)">
        <g class="label-group label-ba">
            <rect x="15" y="-16" width="75" height="32" rx="4" fill="#b89b7b" filter="url(#drop-shadow)" />
            <text x="52.5" y="1" class="text-label">40min</text>
        </g>
        <g class="node node-ba">
            <circle cx="0" cy="0" r="26" fill="#01352f" filter="url(#drop-shadow)" />
            <text x="0" y="1.5" class="text-node">BA</text>
        </g>
    </g>

    <!-- DESTINÁCIA: Sedín s originálnym logom -->
    <g transform="translate(730, 550)">
        <g class="dest-node">
            <!-- Pulzujúci efekt v pozadí -->
            <circle cx="0" cy="0" r="58" fill="rgba(1, 53, 47, 0.2)">
                <animate attributeName="r" values="58; 78; 58" dur="2s" repeatCount="indefinite" />
                <animate attributeName="opacity" values="1; 0; 1" dur="2s" repeatCount="indefinite" />
            </circle>
            
            <!-- Hlavný kruh - mierne zväčšený pre uloženie loga -->
            <circle cx="0" cy="0" r="52" fill="#01352f" filter="url(#drop-shadow)" />
            
            <!-- Vložené originálne SVG Logo (vycentrované a škálované) -->
            <svg x="-42" y="-25" width="84" height="50.4" viewBox="0 0 1000 600">
                <g id="SEDIN">
                    <g>
                        <path fill="#fff" d="M385.21,505.35h3.96c.13,2.68,2.68,5.41,6.73,5.41s6.12-2.55,6.12-5.24c0-2.95-2.68-4.27-5.24-4.93l-3.92-.97c-6.42-1.54-7.44-5.33-7.44-7.79,0-5.24,4.71-8.76,9.99-8.76s9.59,3.39,9.59,8.8h-3.96c0-3.04-2.51-5.11-5.76-5.11-3.04,0-5.85,2.02-5.85,5.02,0,1.06.35,3.17,4.4,4.22l3.96,1.06c5.15,1.36,8.23,4,8.23,8.32,0,4.71-3.83,9.07-10.12,9.07s-10.65-4.4-10.69-9.11Z"></path>
                        <path fill="#fff" d="M438.19,510.24h14.35v3.7h-18.31v-30.32h17.87v3.7h-13.91v9.86h12.15v3.74h-12.15v9.33Z"></path>
                        <path fill="#fff" d="M492.75,483.62c8.62,0,13.69,6.6,13.69,15.23s-5.06,15.09-13.69,15.09h-11.75v-30.32h11.75ZM492.75,510.24c6.38,0,9.68-4.93,9.68-11.4s-3.3-11.53-9.68-11.53h-7.75v22.93h7.75Z"></path>
                        <path fill="#fff" d="M534.95,513.94v-30.32h4v30.32h-4Z"></path>
                        <path fill="#fff" d="M587.22,483.62h4v30.32h-3.87l-13.99-23.1v23.1h-4v-30.32h3.96l13.91,23.02v-23.02Z"></path>
                    </g>
                </g>
                <g id="GOLFSIDE">
                    <path fill="#fff" d="M223.68,370.02v58.09h-9.01v-20.89c-9.22,14.26-24.98,22.42-44.32,22.42-33.47,0-58.73-25.04-58.73-58.24s25.26-58.27,58.73-58.27c27,0,44.44,15.06,44.44,38.33,0,1.19,0,2.53-.4,4.12l-.58,2.32h-9.23l.98-3.82c.21-.86.21-1.5.21-2.47,0-20.62-17.04-27.92-31.61-27.92-24.4,0-42.79,19.97-42.79,46.48s19.24,47.52,44.77,47.52c21.9,0,36.68-15.12,38.36-38.82h-40.5v-8.86h49.66Z"></path>
                    <path fill="#fff" d="M288.55,313.13c-33.47,0-58.7,25.04-58.7,58.27s25.23,58.24,58.7,58.24,58.88-25.04,58.88-58.24-25.32-58.27-58.88-58.27ZM288.55,420.48c-22.2,0-38.94-21.1-38.94-49.08s16.74-49.08,38.94-49.08,39.12,21.1,39.12,49.08-16.83,49.08-39.12,49.08Z"></path>
                    <path fill="#fff" d="M436.21,419.23v8.89h-77.73v-113.43h19v104.54h58.73Z"></path>
                    <path fill="#fff" d="M463.95,323.54v42.64h52.59v8.89h-52.59v53.05h-18.97v-113.43h79.22v8.86h-60.26Z"></path>
                    <path fill="#fff" d="M624.35,394.55c0,20.34-19.36,35.09-46,35.09-25.07,0-43.98-14.05-43.98-32.65,0-3.45.61-6.99,1.83-10.51l.73-2.05h9.16l-1.16,3.91c-.95,3.21-1.4,5.9-1.4,8.49,0,13.16,14.29,23.49,32.53,23.49,17.13,0,29.59-8.86,29.59-21.04s-13.99-17.04-30.21-22.02c-17.81-5.47-38.02-11.67-38.02-32.4,0-18.39,16.83-31.73,40.01-31.73s40.47,14.51,40.47,34.51v3.05h-9.04v-3.05c0-14.35-12.37-25.17-28.83-25.17-13.71,0-24.07,7.57-24.07,17.65,0,11.24,13.25,15.24,28.59,19.91,18.66,5.65,39.8,12.03,39.8,34.51Z"></path>
                    <path fill="#fff" d="M661,314.68v113.43h-19v-113.43h19Z"></path>
                    <path fill="#fff" d="M726.94,314.68h-41.38v113.43h41.38c34.33,0,60.23-24.4,60.23-56.71s-25.9-56.71-60.23-56.71ZM724.65,419.23h-20.1v-95.69h20.1c25.2,0,42.79,19.67,42.79,47.86s-17.59,47.83-42.79,47.83Z"></path>
                    <path fill="#fff" d="M888.38,419.23v8.89h-82.31v-113.43h80.78v8.86h-61.78v42.64h54.12v8.89h-54.12v44.16h63.31Z"></path>
                </g>
                <path id="LOGO-2" data-name="LOGO" fill="#b89b7b" d="M566.3,100.19c-16.77-16.77-39.06-26.01-62.77-26.01s-46.02,9.24-62.77,26.01c-16.77,16.77-26.01,39.06-26.01,62.77,0,6.12.62,12.24,1.85,18.16.58,2.79,1.3,5.6,2.16,8.33,1.32,4.29,3.01,8.49,4.98,12.53,2.08,4.24,4.53,8.37,7.32,12.28,2.88,4.06,6.16,7.91,9.71,11.46,1.27,1.29,2.57,2.5,3.86,3.64,2.9,2.59,6.01,5.02,9.22,7.19,3.39,2.3,6.97,4.38,10.63,6.18,12.19,5.98,25.32,9,39.06,9s27.11-3.1,39.37-9.16l.29-.14c3.53-1.77,6.99-3.8,10.27-6.05,3.11-2.12,6.12-4.47,8.96-6.99,1.32-1.18,2.63-2.41,3.88-3.66,3.37-3.37,6.48-7.01,9.24-10.83,2.9-4,5.47-8.26,7.64-12.66,2.03-4.07,3.73-8.35,5.09-12.68.85-2.72,1.58-5.54,2.17-8.4,1.23-5.94,1.87-12.06,1.87-18.2,0-23.71-9.24-46-26.01-62.77ZM545.91,234.46c-12.79,7.62-27.44,11.64-42.38,11.64s-29.28-3.95-41.98-11.39l-2.05-1.21,2.08-1.14c3.28-1.81,6.48-3.31,12.6-3.31,6.7,0,10,1.85,13.49,3.8,3.8,2.14,8.1,4.55,16.26,4.55s12.48-2.41,16.26-4.53c3.51-1.97,6.81-3.82,13.51-3.82,6.01,0,9.29,1.5,12.15,3.06l2.08,1.14-2.05,1.21ZM564.58,219.33c-3.28,3.55-6.9,6.85-10.76,9.78l-.67.53-.76-.38c-.78-.4-1.52-.81-2.3-1.25-2.59-1.45-5.11-2.86-8.67-3.75-2.35-.58-4.85-.85-7.7-.85-8.17,0-12.46,2.41-16.24,4.53-3.51,1.97-6.81,3.82-13.53,3.82s-10.01-1.85-13.49-3.82c-3.82-2.12-8.11-4.53-16.26-4.53-3.02,0-5.69.33-8.19.98-3.31.89-5.72,2.23-8.06,3.55-1.07.6-1.99,1.1-2.97,1.58l-.74.36-.67-.49c-3.98-3.01-7.71-6.39-11.1-10.07l-2.19-2.35,3.22.09h.92c4.42,0,8.08-.67,11.52-2.12,1.81-.76,3.37-1.63,4.74-2.41l.16-.09c1.03-.58,2.01-1.12,3.08-1.63,3.15-1.47,6.23-2.1,10.27-2.1,6.72,0,10.01,1.87,13.49,3.82,3.78,2.12,8.1,4.53,16.26,4.53s12.48-2.41,16.26-4.53c3.5-1.96,6.81-3.82,13.51-3.82,3.84,0,6.85.6,9.78,1.88,1.3.58,2.48,1.23,3.73,1.94,1.18.67,2.66,1.5,4.27,2.21,2.26,1,5.96,2.32,11.97,2.32h3.11l-2.01,2.28ZM580.41,194.6c-2.17,5.29-4.93,10.38-8.15,15.1l-.25.36-.42.14c-2.41.83-4.98,1.21-8.11,1.21-2.39,0-4.47-.22-6.36-.69-2.86-.72-4.94-1.88-7.14-3.11l-1.16-.65c-2.64-1.45-5.89-3.04-10.81-3.64-1.34-.16-2.79-.24-4.29-.24-8.19,0-12.48,2.39-16.26,4.53-3.5,1.96-6.81,3.8-13.51,3.8s-10-1.85-13.49-3.8c-3.8-2.14-8.1-4.53-16.26-4.53-1.68,0-3.3.09-4.8.31-4.74.63-7.81,2.17-10.78,3.82l-.69.4c-2.35,1.32-4.58,2.57-7.77,3.26-1.72.36-3.6.54-5.74.54-3.66,0-6.52-.51-9.33-1.68l-.38-.16-.22-.33c-3.24-4.82-5.98-9.96-8.11-15.28l-1.45-3.57,3.37,1.88c3.28,1.83,6.97,3.91,13.44,4.36.85.05,1.74.09,2.68.09,2.34,0,4.45-.2,6.45-.58,4.26-.83,7.06-2.41,9.76-3.93,2.54-1.43,4.89-2.75,8.44-3.4,1.58-.29,3.24-.43,5.13-.43,6.72,0,10.01,1.85,13.49,3.8,3.8,2.14,8.1,4.55,16.26,4.55s12.48-2.41,16.26-4.55c3.5-1.96,6.81-3.8,13.51-3.8,1.67,0,3.17.11,4.58.34,3.55.56,5.87,1.76,8.55,3.26l.38.2c2.59,1.47,5.27,2.97,9.2,3.84,2.16.47,4.47.71,7.04.71.69,0,1.34-.02,1.97-.05,6.23-.31,10-2.12,13.06-3.78l3.37-1.87-1.47,3.57ZM586.29,170.93c-.4,4.18-1.12,8.35-2.16,12.41l-.18.71-.69.25c-2.41.83-4.33,1.9-6.18,2.93-2.19,1.23-4.17,2.35-6.86,3.08-2.01.54-4.2.8-6.75.8-1.07,0-2.1-.05-3.1-.14-4.69-.47-7.46-2.03-10.39-3.68l-.18-.09c-1.96-1.1-4.24-2.39-7.26-3.28-2.66-.78-5.54-1.16-8.82-1.16-.81,0-1.58.02-2.32.07-6.68.4-10.38,2.46-13.93,4.46-3.51,1.97-6.81,3.82-13.53,3.82s-10.01-1.85-13.49-3.82c-3.66-2.05-7.42-4.15-14.4-4.47-.6-.04-1.21-.05-1.87-.05-3.48,0-6.5.43-9.29,1.3-2.77.87-4.89,2.06-6.95,3.22l-.38.2c-2.63,1.49-5.63,3.17-10.76,3.53-.74.05-1.54.09-2.39.09-2.93,0-5.36-.34-7.62-1.05-2.25-.72-4-1.72-5.89-2.77-2.1-1.18-4.27-2.41-7.15-3.28l-.74-.24-.18-.74c-1.01-4.07-1.72-8.26-2.1-12.42l-.18-2.06,1.96.65c2.16.71,3.86,1.67,5.65,2.68,1.67.94,3.55,1.99,5.85,2.84,2.61.96,5.38,1.49,8.51,1.65.62.02,1.25.04,1.9.04,3.11,0,5.87-.34,8.38-1.03,2.97-.81,5.2-2.01,7.42-3.24l.45-.25c2.86-1.61,5.58-3.13,10.11-3.64,1.07-.11,2.17-.18,3.4-.18,2.14,0,4.04.2,5.76.58,3.21.69,5.41,1.92,7.73,3.24,3.8,2.12,8.1,4.53,16.26,4.53s12.48-2.41,16.26-4.53c2.23-1.25,4.33-2.43,7.24-3.13,1.85-.45,3.91-.69,6.27-.69,1.07,0,2.06.05,2.95.14,4.8.45,7.57,1.99,10.49,3.64,2.23,1.25,4.46,2.5,7.44,3.39,2.68.8,5.58,1.18,8.87,1.18.42,0,.81,0,1.2-.02,3.15-.09,5.92-.54,8.49-1.41,2.59-.87,4.62-2.01,6.57-3.1,1.56-.87,3.01-1.68,4.71-2.34l2.05-.8-.2,2.19ZM503.66,111.45c-28.16,0-51.07,22.93-51.07,51.09,0,1.9.11,3.84.33,5.74l.11,1.12-1.05.33c-2.25.71-4.64,1.03-7.55,1.03-1.29,0-2.5-.05-3.6-.2l-1.07-.13-.11-1.09c-.24-2.19-.34-4.4-.34-6.61,0-35.44,28.85-64.29,64.29-64.29s64.31,28.85,64.31,64.29c0,2.25-.13,4.51-.34,6.7l-.13,1.12-1.1.09c-.87.07-1.81.11-2.84.11-3.13,0-5.72-.38-8.13-1.23l-1.01-.34.11-1.09c.2-1.83.31-3.69.31-5.56,0-28.16-22.91-51.09-51.09-51.09ZM503.73,130.11c-17.51,0-31.67,13.71-32.2,31.2l-.04,1.18-1.18.13c-4.62.51-7.68,1.83-10.07,3.08l-1.88.96-.11-2.1c-.04-.67-.04-1.34-.04-2.01,0-25.06,20.39-45.46,45.44-45.46s45.46,20.39,45.46,45.46c0,.58,0,1.14-.04,1.72l-.09,2.08-1.87-.94c-2.19-1.09-5.29-2.39-9.94-2.83l-1.2-.11-.04-1.2c-.56-17.48-14.71-31.17-32.22-31.17ZM530.37,162.54l-1.23.16c-5.34.69-8.57,2.5-11.68,4.26-3.5,1.96-6.79,3.8-13.51,3.8s-10-1.85-13.49-3.8c-3.21-1.81-6.52-3.66-12.1-4.31l-1.25-.14.05-1.25c.56-14.32,12.24-25.53,26.57-25.53s26.04,11.25,26.59,25.59l.05,1.23ZM585.62,163.27c-3.6.87-6.14,2.3-8.6,3.68l-.4.22c-.42.24-.81.45-1.21.67l-2.12,1.12.13-2.39c.07-1.27.11-2.54.11-3.82,0-38.56-31.37-69.92-69.94-69.92s-69.92,31.37-69.92,69.92c0,1.16.04,2.3.09,3.42l.11,2.44-2.95-1.65c-2.63-1.49-5.36-3.02-9.44-3.88l-1.09-.24v-1.12c.65-45.17,37.96-81.91,83.14-81.91s82.58,36.84,83.12,82.11l.02,1.09-1.05.25Z"></path>
            </svg>
        </g>
    </g>
</svg>